<svg width="36" height="38" viewBox="0 0 36 38" fill="none" xmlns="http://www.w3.org/2000/svg">
<path d="M17.9999 25.4166C16.2981 25.4166 14.666 24.7406 13.4627 23.5372C12.2593 22.3339 11.5833 20.7018 11.5833 19C11.5833 17.2982 12.2593 15.6661 13.4627 14.4627C14.666 13.2593 16.2981 12.5833 17.9999 12.5833C19.7018 12.5833 21.3339 13.2593 22.5372 14.4627C23.7406 15.6661 24.4166 17.2982 24.4166 19C24.4166 20.7018 23.7406 22.3339 22.5372 23.5372C21.3339 24.7406 19.7018 25.4166 17.9999 25.4166ZM31.6216 20.7783C31.695 20.1916 31.75 19.605 31.75 19C31.75 18.395 31.695 17.79 31.6216 17.1666L35.49 14.1783C35.8383 13.9033 35.9299 13.4083 35.7099 13.005L32.0433 6.66163C31.8233 6.25829 31.3283 6.09329 30.9249 6.25829L26.3599 8.09163C25.4066 7.37663 24.4166 6.75329 23.2616 6.29496L22.5833 1.43663C22.5099 0.996626 22.1249 0.666626 21.6666 0.666626L14.3333 0.666626C13.8749 0.666626 13.4899 0.996626 13.4166 1.43663L12.7383 6.29496C11.5833 6.75329 10.5933 7.37663 9.63995 8.09163L5.07495 6.25829C4.67162 6.09329 4.17662 6.25829 3.95662 6.66163L0.28995 13.005C0.0516163 13.4083 0.161617 13.9033 0.50995 14.1783L4.37828 17.1666C4.30495 17.79 4.24995 18.395 4.24995 19C4.24995 19.605 4.30495 20.1916 4.37828 20.7783L0.50995 23.8216C0.161617 24.0966 0.0516163 24.5916 0.28995 24.995L3.95662 31.3383C4.17662 31.7416 4.67162 31.8883 5.07495 31.7416L9.63995 29.89C10.5933 30.6233 11.5833 31.2466 12.7383 31.705L13.4166 36.5633C13.4899 37.0033 13.8749 37.3333 14.3333 37.3333L21.6666 37.3333C22.1249 37.3333 22.5099 37.0033 22.5833 36.5633L23.2616 31.705C24.4166 31.2283 25.4066 30.6233 26.3599 29.89L30.9249 31.7416C31.3283 31.8883 31.8233 31.7416 32.0433 31.3383L35.7099 24.995C35.9299 24.5916 35.8383 24.0966 35.49 23.8216L31.6216 20.7783Z" fill="#C13434"/>
</svg>
